<svg xmlns="http://www.w3.org/2000/svg" viewBox="0 0 120.98 49.9">
   <defs>
      <style>.cls-1{fill:#fff;}</style>
   </defs>
   <title>TwogNation</title>
   <g id="Layer_2" data-name="Layer 2">
      <g id="font">
         <path class="cls-1" d="M20.72.93H.92a.43.43,0,0,0-.43.43V7.23a.43.43,0,0,0,.43.43H9.08a.43.43,0,0,1,.43.43V31.52a.43.43,0,0,0,.43.43h7.21a.42.42,0,0,0,.42-.43V8.09A.43.43,0,0,1,18,7.66h4.47a.43.43,0,0,0,.41-.55L21.13,1.24A.44.44,0,0,0,20.72.93Z"/>
         <path class="cls-1" d="M96.47,5.43Q91.67,0,83.49,0t-13,5.43a16.59,16.59,0,0,0-3,5.19,17,17,0,0,0-1.13,5.92,16.25,16.25,0,0,0,4.2,11.09q4.8,5.43,12.95,5.43t13-5.43a16.25,16.25,0,0,0,4.2-11.09A16.3,16.3,0,0,0,96.47,5.43Zm-3,12.41a8.83,8.83,0,0,1-2.11,5.35,10,10,0,0,1-4.93,3A9.64,9.64,0,0,1,77.76,25,10.13,10.13,0,0,1,74,19.35,10.27,10.27,0,0,1,74.43,12,9.9,9.9,0,0,1,81.1,6.72a9.37,9.37,0,0,1,6,.1,9.2,9.2,0,0,1,3.41,2.35.42.42,0,0,1,0,.63l-3.28,2.6a.43.43,0,0,1-.59-.05,5.11,5.11,0,0,0-1.62-1.23A4.18,4.18,0,0,0,82.06,11a4.55,4.55,0,0,0-3.41,4.42,6.9,6.9,0,0,0,.24,2.56,6.22,6.22,0,0,0,2.89,3.87,4.47,4.47,0,0,0,3.63.37A4.08,4.08,0,0,0,88,20.3a3.3,3.3,0,0,0,.37-1.76.43.43,0,0,0-.55-.4l-3,.85a.44.44,0,0,1-.53-.3l-.79-2.78a.42.42,0,0,1,.29-.53l8.59-2.45a.44.44,0,0,1,.54.3A14.71,14.71,0,0,1,93.5,17.84Z"/>
         <path class="cls-1" d="M63.47,16.55A19.49,19.49,0,0,1,64.8,9.64a19,19,0,0,1,3.55-6.06,18,18,0,0,1,1.92-1.89A.43.43,0,0,0,70,.93H63.17a.44.44,0,0,0-.42.31L57.38,19.6a.43.43,0,0,1-.82,0L51,1.24a.42.42,0,0,0-.41-.31H44.77a.43.43,0,0,0-.41.3l-6,18.38a.43.43,0,0,1-.82,0L32.59,1.25a.43.43,0,0,0-.41-.32H24.65a.43.43,0,0,0-.41.55l9,30.16a.43.43,0,0,0,.41.31h7.58a.44.44,0,0,0,.41-.29L47,15.24a.43.43,0,0,1,.82,0L53,31.65a.44.44,0,0,0,.41.3H61a.43.43,0,0,0,.41-.3l2.88-9a.36.36,0,0,0,0-.25A19.83,19.83,0,0,1,63.47,16.55Z"/>
         <path class="cls-1" d="M74.32,49.63v-6.1A2.36,2.36,0,0,0,73.93,42a1.79,1.79,0,0,0-1.33-.4q-2.07,0-2.07,2.31v5.77H67.87V39.56h2.54V41a3.26,3.26,0,0,1,1.25-1.3,4.08,4.08,0,0,1,2-.44,4.14,4.14,0,0,1,1.34.22,2.88,2.88,0,0,1,1,.64,3.16,3.16,0,0,1,.7,1.06A3.78,3.78,0,0,1,77,42.65v7Z"/>
         <path class="cls-1" d="M84.37,49.63a4.4,4.4,0,0,1-.16-.9,3.19,3.19,0,0,1-1.25.85,4.78,4.78,0,0,1-1.8.32,3.62,3.62,0,0,1-2.55-.77,2.62,2.62,0,0,1-.81-2,3.66,3.66,0,0,1,.35-1.73,2.62,2.62,0,0,1,1-1,4.64,4.64,0,0,1,1.47-.54c.56-.12,1.18-.22,1.85-.32a3.39,3.39,0,0,0,1.35-.38.93.93,0,0,0-.11-1.53,2.35,2.35,0,0,0-1.24-.28,1.78,1.78,0,0,0-1.32.41,1.82,1.82,0,0,0-.5,1.09H78.13a4.72,4.72,0,0,1,.25-1.44,2.76,2.76,0,0,1,.76-1.12,3.46,3.46,0,0,1,1.36-.73,7.15,7.15,0,0,1,2-.26,6.59,6.59,0,0,1,2,.27,3.27,3.27,0,0,1,1.33.77,2.94,2.94,0,0,1,.73,1.25,5.82,5.82,0,0,1,.22,1.69v6.36Zm-.18-4.93a1.45,1.45,0,0,1-.59.33,10.49,10.49,0,0,1-1.13.26,3.7,3.7,0,0,0-1.58.58,1.22,1.22,0,0,0-.43,1c0,.75.43,1.13,1.29,1.13a2.47,2.47,0,0,0,1-.18,2.17,2.17,0,0,0,.76-.47,2.38,2.38,0,0,0,.51-.7,1.87,1.87,0,0,0,.2-.85Z"/>
         <path class="cls-1" d="M93.63,43h2.48v2.87a4.79,4.79,0,0,1-.24,1.52,3.46,3.46,0,0,1-.74,1.29,3.38,3.38,0,0,1-1.27.89A4.6,4.6,0,0,1,92,49.9a4.79,4.79,0,0,1-1.88-.33,3.52,3.52,0,0,1-1.28-.88,3.3,3.3,0,0,1-.73-1.29,5.28,5.28,0,0,1-.22-1.55v-9h2.62v2.72h5.57v1.88H90.54v4.14a2.65,2.65,0,0,0,.35,1.48,1.34,1.34,0,0,0,1.18.53,1.36,1.36,0,0,0,1.18-.52,2.41,2.41,0,0,0,.38-1.45Z"/>
         <path class="cls-1" d="M97.13,38.35V35.87h2.66v2.48Zm0,11.28V39.56h2.66V49.63Z"/>
         <path class="cls-1" d="M105.87,49.9a5.78,5.78,0,0,1-2.19-.39A4.44,4.44,0,0,1,101,46.75a6.51,6.51,0,0,1-.35-2.15,6.21,6.21,0,0,1,.36-2.17,4.54,4.54,0,0,1,2.66-2.76,5.9,5.9,0,0,1,2.16-.38,5.73,5.73,0,0,1,2.13.38,4.5,4.5,0,0,1,1.61,1.07,4.61,4.61,0,0,1,1,1.67,6.81,6.81,0,0,1,0,4.37,4.87,4.87,0,0,1-1,1.67A4.45,4.45,0,0,1,108,49.52,5.72,5.72,0,0,1,105.87,49.9Zm0-2.23c1.63,0,2.44-1,2.44-3.07s-.81-3.05-2.44-3.05-2.43,1-2.43,3.05S104.25,47.67,105.87,47.67Z"/>
         <path class="cls-1" d="M118.3,49.63v-6.1a2.36,2.36,0,0,0-.39-1.58,1.79,1.79,0,0,0-1.33-.4q-2.07,0-2.07,2.31v5.77h-2.66V39.56h2.54V41a3.33,3.33,0,0,1,1.25-1.3,4.52,4.52,0,0,1,3.34-.22,2.8,2.8,0,0,1,1,.64,3,3,0,0,1,.7,1.06,3.78,3.78,0,0,1,.25,1.44v7Z"/>
         <polygon class="cls-1" points="64.17 44.96 0.97 44.96 0.97 17.02 5.21 17.02 5.21 16.04 0 16.04 0 45.94 64.17 45.94 64.17 44.96"/>
         <polygon class="cls-1" points="116.85 36.31 117.82 36.31 117.82 16.04 105.47 16.04 105.47 17.02 116.85 17.02 116.85 36.31"/>
      </g>
   </g>
</svg>