<svg xmlns="http://www.w3.org/2000/svg" viewBox="0 0 147.26 49.9"><defs><style>.cls-1{fill:#ed1c24;}</style></defs><title>TwogNews</title><g id="Layer_2" data-name="Layer 2"><g id="Layer_1-2" data-name="Layer 1"><path class="cls-1" d="M48.55.93H28.75a.43.43,0,0,0-.43.43V7.23a.43.43,0,0,0,.43.43h8.16a.43.43,0,0,1,.43.43V31.52a.43.43,0,0,0,.43.43H45a.42.42,0,0,0,.42-.43V8.09a.43.43,0,0,1,.43-.43H50.3a.43.43,0,0,0,.41-.55L49,1.24A.44.44,0,0,0,48.55.93Z"/><path class="cls-1" d="M124.3,5.43Q119.5,0,111.33,0t-13,5.43a16.59,16.59,0,0,0-3,5.19,17,17,0,0,0-1.13,5.92,16.25,16.25,0,0,0,4.2,11.09q4.8,5.43,13,5.43t13-5.43a16.26,16.26,0,0,0,4.21-11.09A16.31,16.31,0,0,0,124.3,5.43Zm-3,12.41a8.77,8.77,0,0,1-2.11,5.35,10,10,0,0,1-4.93,3,9.64,9.64,0,0,1-8.7-1.23,10.13,10.13,0,0,1-3.8-5.61,10.21,10.21,0,0,1,.48-7.39,9.86,9.86,0,0,1,6.66-5.24,9.37,9.37,0,0,1,6,.1,9.2,9.2,0,0,1,3.41,2.35.42.42,0,0,1,0,.63L115,12.4a.43.43,0,0,1-.59-.05,5.11,5.11,0,0,0-1.62-1.23,4.18,4.18,0,0,0-2.88-.16,4.55,4.55,0,0,0-3.41,4.42,6.9,6.9,0,0,0,.24,2.56,6.26,6.26,0,0,0,2.89,3.87,4.47,4.47,0,0,0,3.63.37,4.08,4.08,0,0,0,2.57-1.88,3.3,3.3,0,0,0,.37-1.76.43.43,0,0,0-.55-.4l-3,.85a.44.44,0,0,1-.53-.3l-.79-2.78a.42.42,0,0,1,.29-.53l8.59-2.45a.43.43,0,0,1,.54.3A14.42,14.42,0,0,1,121.33,17.84Z"/><path class="cls-1" d="M91.3,16.55a19.49,19.49,0,0,1,1.33-6.91,18.54,18.54,0,0,1,5.47-8,.43.43,0,0,0-.27-.76H91a.45.45,0,0,0-.42.31L85.21,19.6a.43.43,0,0,1-.82,0L78.79,1.24a.42.42,0,0,0-.41-.31H72.6a.44.44,0,0,0-.41.3l-6,18.38a.43.43,0,0,1-.82,0L60.42,1.25A.43.43,0,0,0,60,.93H52.48a.43.43,0,0,0-.41.55l9,30.16a.44.44,0,0,0,.41.31h7.58a.44.44,0,0,0,.41-.29l5.41-16.42a.43.43,0,0,1,.82,0l5.16,16.41a.44.44,0,0,0,.41.3h7.6a.43.43,0,0,0,.41-.3l2.88-9a.36.36,0,0,0,0-.25A19.83,19.83,0,0,1,91.3,16.55Z"/><path class="cls-1" d="M111.15,49.63v-6.1a2.36,2.36,0,0,0-.39-1.58,1.81,1.81,0,0,0-1.33-.4q-2.07,0-2.07,2.31v5.77h-2.67V39.56h2.54V41a3.33,3.33,0,0,1,1.25-1.3,4.1,4.1,0,0,1,2-.44,3.83,3.83,0,0,1,1.33.22,2.92,2.92,0,0,1,1.06.64,3.14,3.14,0,0,1,.69,1.06,3.78,3.78,0,0,1,.26,1.44v7Z"/><path class="cls-1" d="M117.33,45.29a2.86,2.86,0,0,0,.66,1.82,2,2,0,0,0,1.59.68,2.23,2.23,0,0,0,1.16-.3,1.3,1.3,0,0,0,.64-.83h2.75a4.45,4.45,0,0,1-1.64,2.4,4.66,4.66,0,0,1-2.79.84q-5,0-5-5.49A6.63,6.63,0,0,1,115,42.3a4.57,4.57,0,0,1,1-1.61,4.08,4.08,0,0,1,1.52-1,5.54,5.54,0,0,1,2.07-.36,4.24,4.24,0,0,1,3.53,1.5,7.09,7.09,0,0,1,1.2,4.5Zm4.2-1.68a2.83,2.83,0,0,0-.2-1,1.9,1.9,0,0,0-.46-.69,1.82,1.82,0,0,0-.65-.42,2.48,2.48,0,0,0-.76-.13,1.89,1.89,0,0,0-1.38.59,2.49,2.49,0,0,0-.67,1.62Z"/><path class="cls-1" d="M132.77,49.63l-1.6-5.85-1.6,5.85h-2.72L124,39.56h2.81L128.43,46l1.39-6.47h2.7L134.1,46l1.53-6.47h2.75l-2.89,10.07Z"/><path class="cls-1" d="M144.42,42.61a1.48,1.48,0,0,0-.52-1,2.07,2.07,0,0,0-1.28-.32,3.06,3.06,0,0,0-1.24.19.69.69,0,0,0-.42.67.73.73,0,0,0,.42.65,5.4,5.4,0,0,0,1.22.48l2.21.62a5.47,5.47,0,0,1,1.44.6,2.15,2.15,0,0,1,.78.87,3.46,3.46,0,0,1,.23,1.41A2.73,2.73,0,0,1,146.14,49a5.34,5.34,0,0,1-3.34.89,7.13,7.13,0,0,1-2-.25,4.72,4.72,0,0,1-1.5-.7,3.17,3.17,0,0,1-1-1.11A3.13,3.13,0,0,1,138,46.4h2.74a1.25,1.25,0,0,0,.57,1.1,2.5,2.5,0,0,0,1.46.39,3.39,3.39,0,0,0,1.3-.23.77.77,0,0,0,.54-.73.87.87,0,0,0-.4-.8A4.12,4.12,0,0,0,143,45.7a16,16,0,0,1-2.38-.68,5.12,5.12,0,0,1-1.4-.79,2.19,2.19,0,0,1-.68-.94,3.75,3.75,0,0,1-.17-1.15,2.73,2.73,0,0,1,.23-1.09,2.45,2.45,0,0,1,.75-.9,4.11,4.11,0,0,1,1.33-.62,7.28,7.28,0,0,1,2-.24,4.76,4.76,0,0,1,3.17.88A3.4,3.4,0,0,1,147,42.61Z"/><polygon class="cls-1" points="101.35 44.96 28.81 44.96 28.81 35.4 27.83 35.34 27.83 45.94 101.35 45.94 101.35 44.96"/><polygon class="cls-1" points="144.68 36.31 145.66 36.31 145.66 16.04 133.3 16.04 133.3 17.02 144.68 17.02 144.68 36.31"/><path class="cls-1" d="M18.3,10.43A14.86,14.86,0,1,0,33.17,25.29,14.88,14.88,0,0,0,18.3,10.43ZM22.9,32.7c-.48,1.32-1.59,3.84-3.39,4.74v-5.2A21.64,21.64,0,0,1,22.9,32.7Zm-3.39-2.86V26.49h4.55a23,23,0,0,1-.5,3.89A23,23,0,0,0,19.51,29.84ZM27,34.2a12.26,12.26,0,0,1-3.25,2.29,15.73,15.73,0,0,0,1.46-3.11A14.05,14.05,0,0,1,27,34.2Zm-1.79-17a15.73,15.73,0,0,0-1.46-3.11A12.26,12.26,0,0,1,27,16.38,14.05,14.05,0,0,1,25.21,17.2Zm-1.15,6.89H19.51V20.75a24,24,0,0,0,4-.55A23,23,0,0,1,24.06,24.09Zm-4.55-5.75v-5.2c1.8.9,2.91,3.42,3.39,4.74A20.51,20.51,0,0,1,19.51,18.34ZM30.7,26.49a12.28,12.28,0,0,1-2.13,5.84,15.63,15.63,0,0,0-2.7-1.26,25.94,25.94,0,0,0,.6-4.58Zm0-2.4H26.47a25.7,25.7,0,0,0-.6-4.57,16.42,16.42,0,0,0,2.7-1.27A12.28,12.28,0,0,1,30.7,24.09Zm-20,7A15.28,15.28,0,0,0,8,32.33a12.28,12.28,0,0,1-2.13-5.84h4.23A25.94,25.94,0,0,0,10.74,31.07Zm3-13.19c.47-1.32,1.59-3.84,3.39-4.74v5.2A20.51,20.51,0,0,1,13.71,17.88Zm3.39,2.87v3.34H12.55a23,23,0,0,1,.5-3.89A24,24,0,0,0,17.1,20.75ZM9.61,16.38a12.26,12.26,0,0,1,3.25-2.29A14.68,14.68,0,0,0,11.4,17.2,14.05,14.05,0,0,1,9.61,16.38Zm3.25,20.11A12.26,12.26,0,0,1,9.61,34.2a14.05,14.05,0,0,1,1.79-.82A15.18,15.18,0,0,0,12.86,36.49Zm-.31-10H17.1v3.35a23,23,0,0,0-4.05.54A23,23,0,0,1,12.55,26.49Zm4.55,5.75v5.2c-1.8-.9-2.92-3.42-3.39-4.74A21.64,21.64,0,0,1,17.1,32.24ZM5.91,24.09A12.28,12.28,0,0,1,8,18.25a16,16,0,0,0,2.7,1.27,25.7,25.7,0,0,0-.6,4.57Z"/><path class="cls-1" d="M.5,24.79a.5.5,0,0,1-.5-.5A17.1,17.1,0,0,1,17.08,7.21a.5.5,0,0,1,0,1A16.1,16.1,0,0,0,1,24.29.5.5,0,0,1,.5,24.79Z"/><path class="cls-1" d="M18.33,43.83a17.12,17.12,0,0,1-12.12-5,.51.51,0,0,1,0-.71.5.5,0,0,1,.71,0,16.18,16.18,0,0,0,20.9,1.59.5.5,0,0,1,.7.1.51.51,0,0,1-.11.7A16.92,16.92,0,0,1,18.33,43.83Z"/><path class="cls-1" d="M.67,26.5a.5.5,0,0,0,0-1,.5.5,0,0,0,0,1Z"/></g></g></svg>