<svg xmlns="http://www.w3.org/2000/svg" viewBox="0 0 145.15 49.9"><defs><style>.cls-1{fill:#7e596d;}</style></defs><title>TwogBiz</title><g id="Layer_2" data-name="Layer 2"><g id="Layer_1-2" data-name="Layer 1"><path class="cls-1" d="M49.85.93H30.05a.43.43,0,0,0-.43.43V7.23a.43.43,0,0,0,.43.43h8.16a.43.43,0,0,1,.43.43V31.52a.43.43,0,0,0,.43.43h7.21a.43.43,0,0,0,.43-.43V8.09a.43.43,0,0,1,.43-.43H51.6A.43.43,0,0,0,52,7.11L50.26,1.24A.43.43,0,0,0,49.85.93Z"/><path class="cls-1" d="M125.61,5.43Q120.81,0,112.63,0t-13,5.43a16.57,16.57,0,0,0-3,5.19,16.82,16.82,0,0,0-1.14,5.92,16.22,16.22,0,0,0,4.21,11.09q4.78,5.43,12.95,5.43t13-5.43a16.25,16.25,0,0,0,4.2-11.09A16.3,16.3,0,0,0,125.61,5.43Zm-3,12.41a8.83,8.83,0,0,1-2.11,5.35,10,10,0,0,1-4.93,3A9.63,9.63,0,0,1,106.9,25a10.08,10.08,0,0,1-3.8-5.61,10.21,10.21,0,0,1,.47-7.39,9.88,9.88,0,0,1,6.67-5.24,8.75,8.75,0,0,1,9.37,2.45.43.43,0,0,1,0,.63l-3.28,2.6a.43.43,0,0,1-.59-.05,4.9,4.9,0,0,0-1.62-1.23A4.15,4.15,0,0,0,111.2,11a4.53,4.53,0,0,0-3.41,4.42,6.89,6.89,0,0,0,.23,2.56,6.29,6.29,0,0,0,2.89,3.87,4.47,4.47,0,0,0,3.63.37,4,4,0,0,0,2.57-1.88,3.3,3.3,0,0,0,.37-1.76.42.42,0,0,0-.54-.4L114,19a.43.43,0,0,1-.53-.3l-.8-2.78a.43.43,0,0,1,.3-.53l8.59-2.45a.42.42,0,0,1,.53.3A14.75,14.75,0,0,1,122.64,17.84Z"/><path class="cls-1" d="M92.6,16.55a19.71,19.71,0,0,1,1.33-6.91,19.23,19.23,0,0,1,3.55-6.06,18.08,18.08,0,0,1,1.93-1.89.43.43,0,0,0-.28-.76H92.3a.43.43,0,0,0-.41.31L86.52,19.6a.43.43,0,0,1-.82,0L80.1,1.24a.44.44,0,0,0-.41-.31H73.91a.43.43,0,0,0-.41.3l-6,18.38a.44.44,0,0,1-.83,0L61.73,1.25a.43.43,0,0,0-.42-.32H53.79a.42.42,0,0,0-.41.55l9,30.16a.42.42,0,0,0,.41.31h7.57a.43.43,0,0,0,.41-.29l5.42-16.42a.42.42,0,0,1,.81,0l5.17,16.41a.42.42,0,0,0,.41.3h7.6a.42.42,0,0,0,.4-.3l2.89-9a.53.53,0,0,0,0-.25A19.51,19.51,0,0,1,92.6,16.55Z"/><path class="cls-1" d="M122.34,49.63V35.87H125v5a3.51,3.51,0,0,1,3-1.58,4,4,0,0,1,1.75.38,3.64,3.64,0,0,1,1.3,1.08,5.09,5.09,0,0,1,.81,1.65,7.6,7.6,0,0,1,.28,2.09,7.29,7.29,0,0,1-.33,2.28,5.28,5.28,0,0,1-.9,1.7,3.88,3.88,0,0,1-1.39,1.06,4.1,4.1,0,0,1-1.75.37,3.07,3.07,0,0,1-2.8-1.49l0,1.22Zm4.77-1.9a2,2,0,0,0,1.64-.85,3.61,3.61,0,0,0,.63-2.2c0-2.08-.76-3.11-2.29-3.11s-2.23,1.09-2.23,3.27a3.22,3.22,0,0,0,.64,2.09A2,2,0,0,0,127.11,47.73Z"/><path class="cls-1" d="M133,38.35V35.87h2.66v2.48Zm0,11.28V39.56h2.66V49.63Z"/><path class="cls-1" d="M136.47,49.63v-2l5.14-5.92h-4.8V39.56H145v2.15l-5.14,5.75h5.28v2.17Z"/><polygon class="cls-1" points="118.66 44.96 30.11 44.96 30.11 32.43 29.14 32.42 29.14 45.94 118.66 45.94 118.66 44.96"/><polygon class="cls-1" points="143.12 36.48 144.1 36.48 144.1 16.21 131.74 16.21 131.74 17.19 143.12 17.19 143.12 36.48"/><g id="Uotgwu.tif"><path class="cls-1" d="M.1,22.16a19.85,19.85,0,0,1,.62-2,16.72,16.72,0,0,1,3.57-5.27A11.93,11.93,0,0,1,7.8,12.23a3.59,3.59,0,0,1,2.46-.41,3.13,3.13,0,0,1,1,.5c1.85,1.46,3.69,2.94,5.51,4.42a.78.78,0,0,0,.78.17c.34-.1.7-.12,1-.21a1.44,1.44,0,0,0,.55-.24c1.63-1.28,3.27-2.55,4.85-3.88a3,3,0,0,1,3.24-.46,9.73,9.73,0,0,1,3.06,2,17.88,17.88,0,0,1,4.31,5.71A7.3,7.3,0,0,1,35.41,23a2.56,2.56,0,0,1-1,2.09c-1,.81-2,1.65-3.08,2.49a2.94,2.94,0,0,1-1.94,5.38,2.94,2.94,0,0,1-1.1,2,2.9,2.9,0,0,1-2.15.59,2.94,2.94,0,0,1-3.23,2.6,9.3,9.3,0,0,1-.5,1.21,2.85,2.85,0,0,1-4.23.74c-.4-.29-.4-.29-.78,0a2.89,2.89,0,0,1-4.68-1.71.28.28,0,0,0-.23-.19,2.91,2.91,0,0,1-3-2.37,1.41,1.41,0,0,0-.06-.22c-1.95-.09-3-.88-3.26-2.57A2.87,2.87,0,0,1,3,31c-.52-1.46.13-2.58,1.25-3.53-.92-.75-1.8-1.49-2.71-2.19a6.33,6.33,0,0,1-1-.94,2.43,2.43,0,0,1-.46-2.19ZM12.6,32l.13,0a2.85,2.85,0,0,1,2.9,2.46c0,.08.17.18.27.21a6.45,6.45,0,0,1,1,.21A2.86,2.86,0,0,1,18.72,38a.51.51,0,0,0,.09.33,2.79,2.79,0,0,0,.54.42,1.16,1.16,0,0,0,1.72-.61,1.23,1.23,0,0,0-.41-1.36.84.84,0,0,1,0-1.18.85.85,0,0,1,1.15-.08c.24.17.45.36.68.54a1.19,1.19,0,0,0,1,.28,1.12,1.12,0,0,0,.94-.8A1.2,1.2,0,0,0,24,34.25.86.86,0,0,1,23.89,33a.89.89,0,0,1,1.22,0c.25.19.49.41.76.59a1.17,1.17,0,0,0,1.77-.66,1.19,1.19,0,0,0-.39-1.25.85.85,0,1,1,1.13-1.26l.59.47a1.18,1.18,0,0,0,1.72-.11A1.21,1.21,0,0,0,30.44,29L24,23.84a.57.57,0,0,0-.42-.09,19.49,19.49,0,0,1-5.78.75h-.5c-.35,1-.65,2-1,3a2.5,2.5,0,0,1-2.76,1.58,2.6,2.6,0,0,1-2.3-2.29,12.77,12.77,0,0,1,.43-5.11,5.55,5.55,0,0,1,2.39-3.38L14.7,18l0-.09c-.55.06-1.11.08-1.65.18a7.59,7.59,0,0,0-6,8.62.56.56,0,0,0,.34.47,5,5,0,0,1,.88.63A2.77,2.77,0,0,1,9,29.25,3,3,0,0,1,12.6,32Zm.25-6.34A4,4,0,0,0,13,26.81a.94.94,0,0,0,.25.37.89.89,0,0,0,.57.23c.52,0,.83-.13,1-.57.3-.9.6-1.79.85-2.69.38-1.33.41-1.38,1.79-1.35A18,18,0,0,0,23.65,22a1,1,0,0,1,1.05.23l4.49,3.65.33.25c0-.16,0-.26,0-.34A9,9,0,0,0,26,20.14a9.6,9.6,0,0,0-7.91-1.61,11.21,11.21,0,0,0-2.46.85c-2.33,1-2.62,4-2.69,4.44,0,.21-.05.38-.06.5S12.87,25.18,12.85,25.65Zm-7,.91a8.79,8.79,0,0,1,8.28-9.8l-.36-.31c-1.13-.9-2.27-1.79-3.38-2.72a1.15,1.15,0,0,0-1.12-.21,6.08,6.08,0,0,0-2.09,1.1,15.63,15.63,0,0,0-4.65,5.71,6,6,0,0,0-.67,2.41,1,1,0,0,0,.43.94c.58.44,1.13.91,1.69,1.37ZM21,17.17c5.39.54,8.48,3.55,9.74,8.66.9-.74,1.82-1.48,2.72-2.24a.7.7,0,0,0,.22-.55,7.21,7.21,0,0,0-.3-1.74,14.68,14.68,0,0,0-5.11-6.66,9.66,9.66,0,0,0-2-1,.94.94,0,0,0-1.11.2c-.2.2-.45.36-.67.54ZM10.86,32.07a1.16,1.16,0,0,0-1.75-1A4.25,4.25,0,0,0,8,32a1.14,1.14,0,0,0,.69,1.79,2.16,2.16,0,0,0,2.13-1.69S10.86,32.09,10.86,32.07Zm1.21,4.36a1.91,1.91,0,0,0,1.44-.65,1.14,1.14,0,0,0,.32-1.45,1.19,1.19,0,0,0-1.3-.61,2.07,2.07,0,0,0-1.1.73,1.17,1.17,0,0,0-.24,1.27A1.09,1.09,0,0,0,12.07,36.43ZM5.71,31.28A1.9,1.9,0,0,0,7.27,30,1.18,1.18,0,0,0,6,28.56a1.79,1.79,0,0,0-1.44,1.53A1.14,1.14,0,0,0,5.71,31.28ZM15.34,39a1.68,1.68,0,0,0,1.53-.82,1.19,1.19,0,0,0-.06-1.35,1.11,1.11,0,0,0-1.28-.4,2.79,2.79,0,0,0-.8.57,1.11,1.11,0,0,0-.27,1.29A1.08,1.08,0,0,0,15.34,39Z"/></g></g></g></svg>