<svg xmlns="http://www.w3.org/2000/svg" viewBox="0 0 145.33 49.9"><defs><style>.cls-1{fill:#6abd45;}</style></defs><title>TwogHub</title><g id="Layer_2" data-name="Layer 2"><g id="Layer_1-2" data-name="Layer 1"><polygon class="cls-1" points="138.91 32.22 139.88 32.22 139.88 15.95 127.53 15.95 127.53 16.93 138.91 16.93 138.91 32.22"/><path class="cls-1" d="M45.43.93H25.63a.43.43,0,0,0-.43.43V7.23a.43.43,0,0,0,.43.43h8.16a.43.43,0,0,1,.43.43V31.52a.43.43,0,0,0,.43.43h7.21a.43.43,0,0,0,.43-.43V8.09a.43.43,0,0,1,.43-.43h4.46a.43.43,0,0,0,.41-.55L45.84,1.24A.43.43,0,0,0,45.43.93Z"/><path class="cls-1" d="M121.18,5.43Q116.39,0,108.21,0t-13,5.43a16.57,16.57,0,0,0-3,5.19,16.82,16.82,0,0,0-1.14,5.92,16.22,16.22,0,0,0,4.21,11.09q4.78,5.43,12.95,5.43t13-5.43a16.22,16.22,0,0,0,4.21-11.09A16.27,16.27,0,0,0,121.18,5.43Zm-3,12.41a8.83,8.83,0,0,1-2.11,5.35,10,10,0,0,1-4.94,3A9.62,9.62,0,0,1,102.48,25a10.08,10.08,0,0,1-3.8-5.61A10.21,10.21,0,0,1,99.15,12a9.88,9.88,0,0,1,6.66-5.24,9.37,9.37,0,0,1,6,.1,9.31,9.31,0,0,1,3.42,2.35.43.43,0,0,1,0,.63l-3.28,2.6a.43.43,0,0,1-.59-.05,4.9,4.9,0,0,0-1.62-1.23,4.15,4.15,0,0,0-2.87-.16,4.53,4.53,0,0,0-3.41,4.42,6.69,6.69,0,0,0,.23,2.56,6.29,6.29,0,0,0,2.89,3.87,4.47,4.47,0,0,0,3.63.37,4,4,0,0,0,2.57-1.88,3.3,3.3,0,0,0,.37-1.76.43.43,0,0,0-.55-.4l-3,.85a.42.42,0,0,1-.52-.3l-.8-2.78a.43.43,0,0,1,.3-.53l8.59-2.45a.42.42,0,0,1,.53.3A14.75,14.75,0,0,1,118.22,17.84Z"/><path class="cls-1" d="M88.18,16.55a19.71,19.71,0,0,1,1.33-6.91,19.23,19.23,0,0,1,3.55-6.06A19,19,0,0,1,95,1.69a.43.43,0,0,0-.27-.76H87.88a.43.43,0,0,0-.41.31L82.1,19.6a.43.43,0,0,1-.82,0L75.67,1.24a.42.42,0,0,0-.41-.31H69.48a.42.42,0,0,0-.4.3l-6,18.38a.43.43,0,0,1-.82,0L57.31,1.25a.43.43,0,0,0-.42-.32H49.36a.43.43,0,0,0-.41.55l9,30.16a.42.42,0,0,0,.41.31h7.57a.43.43,0,0,0,.41-.29l5.42-16.42a.42.42,0,0,1,.81,0l5.17,16.41a.42.42,0,0,0,.41.3h7.59a.42.42,0,0,0,.41-.3l2.89-9a.53.53,0,0,0,0-.25A19.51,19.51,0,0,1,88.18,16.55Z"/><path class="cls-1" d="M121.7,49.63V43.39a2.28,2.28,0,0,0-.4-1.57A1.77,1.77,0,0,0,120,41.4a1.93,1.93,0,0,0-.88.2,1.89,1.89,0,0,0-.66.53,2.4,2.4,0,0,0-.4.78,3.57,3.57,0,0,0-.13,1v5.77h-2.66V35.87h2.66v5a2.12,2.12,0,0,1,.44-.63,3.21,3.21,0,0,1,.69-.5,4.15,4.15,0,0,1,.86-.32,3.51,3.51,0,0,1,1-.13,3.74,3.74,0,0,1,2.53.85,3,3,0,0,1,1,2.37v7.12Z"/><path class="cls-1" d="M132,49.63V48.22a3.42,3.42,0,0,1-3.13,1.68,3.48,3.48,0,0,1-1.39-.27,3.1,3.1,0,0,1-1.07-.75,3.63,3.63,0,0,1-.71-1.17,4.29,4.29,0,0,1-.25-1.52V39.56h2.66v6.22c0,1.26.57,1.89,1.7,1.89a1.86,1.86,0,0,0,1.54-.65,2.53,2.53,0,0,0,.53-1.65V39.56h2.64V49.63Z"/><path class="cls-1" d="M135.58,49.63V35.87h2.62v5a3.51,3.51,0,0,1,3-1.58,3.92,3.92,0,0,1,1.75.38,3.48,3.48,0,0,1,1.3,1.08,4.71,4.71,0,0,1,.81,1.65,8,8,0,0,1-.05,4.37,5.28,5.28,0,0,1-.9,1.7,3.76,3.76,0,0,1-1.38,1.06,4.13,4.13,0,0,1-1.75.37,3.09,3.09,0,0,1-2.81-1.49l0,1.22Zm4.77-1.9a2,2,0,0,0,1.64-.85,3.61,3.61,0,0,0,.64-2.2c0-2.08-.77-3.11-2.3-3.11s-2.23,1.09-2.23,3.27a3.22,3.22,0,0,0,.65,2.09A2,2,0,0,0,140.35,47.73Z"/><polygon class="cls-1" points="112.05 45.63 26.86 45.63 26.86 35.19 25.88 35.37 25.88 46.6 112.05 46.6 112.05 45.63"/><path class="cls-1" d="M22.16,23a5.75,5.75,0,0,0-5.56-4.27H13.82v2.73H10.91a.8.8,0,1,0,0,1.6h2.91v2.86H10.91a.8.8,0,1,0,0,1.6h2.91V30.2H16.6A5.74,5.74,0,0,0,22.15,26h6a.58.58,0,0,1,.57.66A13,13,0,1,1,16,11.48v-3a16,16,0,1,0,16,16v-.93a.56.56,0,0,0-.57-.57Z"/></g></g></svg>